# xmcd
#
# Track frame offsets: 
#        150
#        13080
#        25865
#        43025
#        56840
#        71012
#        87657
#        104555
#        119012
#        135910
#        156917
#        173165
#        184942
#        200952
#        218875
#        231540
#
# Disc length: 3272 seconds
#
# Revision: 2
# Processed by: cddbd v1.5.1PL0 Copyright (c) Steve Scherf et al.
# Submitted via: ExactAudioCopy v0.95a5
#
DISCID=f80cc610
DTITLE=Various Artist - Country Heat 3
DYEAR=1993
DGENRE=Country
TTITLE0=Alan Jackson - Don't Rock The Jukebox
TTITLE1=Alabama - I'm In A Hurry (and don't know why)
TTITLE2=Brooks and Dunn - Lost And Found
TTITLE3=Lee Roy Parnell - Love Without Mercy
TTITLE4=Pam Tillis - Shake The Sugar Tree
TTITLE5=Diamond Rio - Nowhere Bound
TTITLE6=Michelle Wright - He Would Be Sixteen
TTITLE7=Aaron Tippin - I Wouldn't Have It Any Other Way
TTITLE8=Restless Heart - When She Cries
TTITLE9=Clint Black - We Tell Ourselves
TTITLE10=Lorrie Morgan - Watch Me
TTITLE11=Robert Ellis Orrall - Boom! It Was Over
TTITLE12=Shenandoah - Leavin' Been A Long Time Comin'
TTITLE13=John Anderson - Seminole Wind
TTITLE14=Prairie Oyster - Everybody Knows
TTITLE15=Dolly Parton - I Will Always Love You
EXTD=
EXTT0=
EXTT1=
EXTT2=
EXTT3=
EXTT4=
EXTT5=
EXTT6=
EXTT7=
EXTT8=
EXTT9=
EXTT10=
EXTT11=
EXTT12=
EXTT13=
EXTT14=
EXTT15=
PLAYORDER=
